<svg version="1.1" id="Layer_1" xmlns="http://www.w3.org/2000/svg" xmlns:xlink="http://www.w3.org/1999/xlink" x="0px" y="0px"
	 width="100%" viewBox="0 0 496 496" enable-background="new 0 0 496 496" xml:space="preserve">
<path fill="#000000" opacity="1.000000" stroke="none" 
	d="
M268.152039,198.464783 
	C275.746155,185.235886 288.493896,179.823624 301.377228,174.650696 
	C303.794403,173.680115 306.232941,172.197815 309.032135,173.105667 
	C312.691376,174.292496 315.056946,176.756332 315.226807,180.685104 
	C315.408600,184.889175 312.932648,187.524139 309.229004,188.972900 
	C303.506744,191.211304 297.580627,192.977600 291.997498,195.509827 
	C285.395172,198.504288 278.780579,201.675262 273.758301,207.111694 
	C274.865509,210.050201 277.158386,211.221558 279.171509,212.600357 
	C288.037170,218.672363 297.879486,222.649033 308.026215,225.994644 
	C313.942444,227.945374 316.491608,232.085709 314.879517,236.691360 
	C313.171875,241.569992 308.445160,243.374695 302.493988,241.189117 
	C291.185181,237.035950 280.157867,232.305023 272.154785,222.765198 
	C266.190735,215.655945 263.666626,207.785202 268.152039,198.464783 
z"/>
<path fill="#000000" opacity="1.000000" stroke="none" 
	d="
M280.340271,144.112061 
	C285.019257,146.203461 286.796417,149.664093 285.374512,154.015335 
	C281.529205,165.782761 276.648224,176.997528 267.251465,185.670181 
	C257.274475,194.878311 245.071564,195.133499 235.149719,185.886673 
	C225.714157,177.093048 220.805649,165.624924 216.989792,153.661270 
	C215.613480,149.346191 217.978073,145.559021 222.079407,144.132874 
	C226.277390,142.673157 230.560120,144.496078 232.206329,148.896240 
	C235.583969,157.924286 238.530594,167.129379 243.516327,175.460052 
	C245.623978,178.981735 247.704407,182.570526 251.291336,185.443954 
	C256.986206,179.893845 260.355072,173.254761 263.390198,166.479599 
	C265.696198,161.332031 267.555878,155.979889 269.507935,150.679657 
	C271.619446,144.946533 273.736237,143.528839 280.340271,144.112061 
z"/>
<path fill="#000000" opacity="1.000000" stroke="none" 
	d="
M235.975433,255.906876 
	C234.653366,259.548737 233.545975,262.860352 232.291626,266.115295 
	C230.492889,270.782745 226.520721,272.652893 221.836594,271.155579 
	C218.135849,269.972565 215.722931,265.701416 216.992279,261.421936 
	C220.435303,249.814102 225.483963,238.945160 234.281769,230.374390 
	C245.226852,219.711731 258.279388,220.094131 269.027100,231.244934 
	C277.302094,239.830246 281.966888,250.502899 285.490784,261.685760 
	C286.728302,265.612823 284.430573,269.728119 280.875580,271.042847 
	C276.409180,272.694611 272.090546,270.922577 270.201996,266.347473 
	C267.539825,259.898132 265.253815,253.291885 262.530426,246.869980 
	C259.872375,240.602127 256.380127,234.814697 251.178818,229.637161 
	C243.616714,237.147293 239.850632,246.337433 235.975433,255.906876 
z"/>
<path fill="#000000" opacity="1.000000" stroke="none" 
	d="
M202.753204,192.270172 
	C199.251068,191.044083 196.076309,190.038437 192.986389,188.817993 
	C188.120804,186.896240 186.033569,182.367645 187.848053,177.986664 
	C189.611221,173.729568 193.822647,172.034454 198.574814,173.745743 
	C208.318848,177.254715 217.720566,181.377228 225.759415,188.155991 
	C239.220139,199.506760 239.854385,213.252335 227.385559,225.516159 
	C218.949341,233.813644 208.302612,238.124176 197.426819,241.887573 
	C193.069931,243.395233 189.064590,240.875122 187.603088,236.515244 
	C186.172394,232.247284 188.031921,228.370331 192.743790,226.664307 
	C201.669312,223.432632 210.591049,220.225967 218.822861,215.402649 
	C222.263931,213.386398 225.686951,211.344299 228.760101,207.758545 
	C221.881989,199.726242 212.218781,196.508423 202.753204,192.270172 
z"/>
<path fill="#000000" opacity="1.000000" stroke="none" 
	d="
M188.799103,214.915756 
	C181.547958,218.831284 174.672440,216.347748 173.784927,209.754044 
	C173.194611,205.368256 173.863251,201.382339 178.538406,199.337128 
	C182.676315,197.526962 187.969101,198.740372 190.305588,201.993332 
	C193.174637,205.987778 192.796173,209.952271 188.799103,214.915756 
z"/>
<path fill="#000000" opacity="1.000000" stroke="none" 
	d="
M311.037811,204.146622 
	C314.427704,198.507065 320.916443,196.918106 325.626007,200.254684 
	C329.630920,203.092026 330.328308,209.583771 327.059326,213.596527 
	C323.529510,217.929459 317.492981,218.384567 313.377625,214.622818 
	C310.293854,211.804047 310.212830,208.244949 311.037811,204.146622 
z"/>
<path fill="#000000" opacity="1.000000" stroke="none" 
	d="
M241.776810,276.011139 
	C243.407944,269.510315 247.023956,266.380981 251.950653,266.800995 
	C256.691315,267.205139 259.972961,270.424927 260.385040,275.076385 
	C260.810944,279.883911 258.216644,284.049652 254.124329,285.129333 
	C248.789597,286.536835 244.564423,284.439850 242.493958,279.291077 
	C242.129181,278.383972 242.007736,277.378998 241.776810,276.011139 
z"/>
<path fill="#000000" opacity="1.000000" stroke="none" 
	d="
M259.574585,143.392731 
	C255.159882,148.852966 249.514542,149.796295 245.172516,146.098343 
	C241.257538,142.764114 240.722733,137.081726 243.953659,133.147644 
	C246.520844,130.021759 251.847504,129.057861 255.834000,130.997818 
	C259.871857,132.962784 261.138153,136.847824 259.574585,143.392731 
z"/>
</svg>