<svg xmlns="http://www.w3.org/2000/svg" width="500" height="500" viewBox="0 0 500 500" version="1.1"><path d="M 244.025 131.975 C 238.280 137.720, 242.676 147, 251.142 147 C 252.249 147, 254.469 145.685, 256.077 144.077 C 259.593 140.561, 259.901 136.415, 256.927 132.635 C 255.246 130.497, 254.019 130, 250.427 130 C 247.352 130, 245.397 130.603, 244.025 131.975 M 218.455 145.455 C 215.284 148.625, 215.359 150.333, 219.085 159.724 C 223.173 170.030, 227.820 177.483, 233.687 183.142 C 239.979 189.212, 243.746 191.002, 250.200 190.991 C 257.146 190.978, 264.494 186.832, 270.145 179.737 C 275.345 173.209, 283.126 157.060, 283.753 151.497 C 284.164 147.849, 283.876 147.048, 281.477 145.161 C 275.304 140.305, 271.558 142.983, 267.015 155.500 C 262.826 167.041, 257.721 176.868, 253.408 181.691 L 250.001 185.500 247.034 182.078 C 243.026 177.455, 237.642 167.006, 233.482 155.776 C 231.592 150.674, 229.086 145.713, 227.912 144.750 C 224.928 142.303, 221.339 142.570, 218.455 145.455 M 188.637 175.108 C 186.506 178.151, 186.554 182.265, 188.750 184.791 C 189.713 185.898, 192.975 187.572, 196 188.510 C 204.250 191.069, 221.125 199.531, 225.472 203.290 L 229.305 206.603 225.403 209.825 C 220.457 213.909, 206.810 220.892, 196.705 224.510 C 192.182 226.129, 188.483 228.097, 187.895 229.197 C 186.154 232.450, 187.250 237.117, 190.286 239.373 C 193.029 241.412, 193.152 241.416, 198.286 239.645 C 219.694 232.259, 233.032 220.638, 234.743 207.881 C 236.014 198.402, 225.510 186.211, 209.258 178.305 C 197.539 172.605, 191.091 171.605, 188.637 175.108 M 294.778 176.499 C 275.584 185.051, 265.778 195.100, 265.673 206.326 C 265.551 219.253, 277.797 230.670, 301.232 239.479 C 305.145 240.950, 306.463 241.051, 308.852 240.061 C 311.630 238.911, 314 235.433, 314 232.509 C 314 229.585, 309.248 226.171, 301.500 223.526 C 291.488 220.110, 279.349 213.878, 274.441 209.636 L 270.693 206.396 275.629 202.772 C 281.824 198.224, 294.418 191.943, 303.296 188.973 C 313.282 185.632, 316.220 181.092, 311.927 175.635 C 309.053 171.981, 304.391 172.216, 294.778 176.499 M 175.455 200.455 C 172.361 203.548, 172.195 208.707, 175.073 212.365 C 177.862 215.911, 184.645 216.119, 187.677 212.750 C 190.693 209.399, 191.134 207.256, 189.575 203.525 C 187.080 197.555, 179.913 195.996, 175.455 200.455 M 312.452 200.646 C 309.399 203.940, 309.243 208.768, 312.073 212.365 C 314.886 215.942, 321.607 216.111, 324.826 212.686 C 328.071 209.231, 327.837 202.803, 324.365 200.073 C 320.590 197.103, 315.509 197.348, 312.452 200.646 M 241.272 224.509 C 233.952 228.216, 227.693 235.653, 221.884 247.547 C 215.499 260.620, 214.898 263.988, 218.336 267.427 C 221.583 270.674, 225.926 270.810, 228.666 267.750 C 229.775 266.512, 231.931 261.900, 233.458 257.500 C 237.977 244.477, 247.259 228, 250.075 228 C 252.944 228, 262.344 244.773, 267.445 258.995 C 268.924 263.118, 270.849 267.280, 271.722 268.245 C 273.874 270.623, 279.112 270.476, 281.811 267.961 C 284.758 265.215, 284.584 261.642, 281.083 253.039 C 270.916 228.056, 255.742 217.182, 241.272 224.509 M 246.421 267.396 C 240.549 269.996, 239.634 277.993, 244.747 282.016 C 248.611 285.055, 253.305 284.615, 256.411 280.923 C 259.609 277.123, 259.734 272.933, 256.750 269.593 C 253.904 266.408, 250.356 265.654, 246.421 267.396 M 146.039 302.250 C 145.403 304.038, 143.126 310.563, 140.979 316.750 L 137.077 328 141.019 328 C 144.391 328, 145.053 327.638, 145.589 325.500 C 146.177 323.158, 146.623 323, 152.633 323 C 158.557 323, 159.122 323.192, 160 325.500 C 160.766 327.514, 161.636 328, 164.475 328 C 166.414 328, 168.006 327.663, 168.014 327.250 C 168.021 326.837, 165.884 320.314, 163.264 312.752 L 158.500 299.005 152.848 299.002 C 147.374 299, 147.159 299.103, 146.039 302.250 M 172 313.409 L 172 328 181.453 328 C 192.079 328, 195.362 326.954, 196.978 323.054 C 198.385 319.657, 196.810 315.024, 193.998 314.289 C 192.124 313.799, 192.151 313.669, 194.510 311.813 C 197.710 309.296, 197.903 304.128, 194.898 301.405 C 193.177 299.846, 190.907 299.438, 182.398 299.159 L 172 298.818 172 313.409 M 201.353 300.522 C 200.237 303.431, 201.549 321.419, 203.049 323.762 C 206.631 329.360, 219.126 330.374, 224.769 325.525 C 227.423 323.244, 227.509 322.837, 227.835 311.023 L 228.170 298.869 224.335 299.185 L 220.500 299.500 220.211 309.444 C 220.053 314.913, 219.435 319.976, 218.839 320.694 C 217.128 322.756, 211.250 322.336, 210.035 320.066 C 209.466 319.002, 209 313.827, 209 308.566 L 209 299 205.469 299 C 203.229 299, 201.724 299.557, 201.353 300.522 M 239.085 300.697 C 232.629 304.105, 230.293 312.694, 233.585 320.920 C 236.396 327.946, 244.344 330.755, 251.250 327.165 C 254.187 325.638, 255 325.517, 255 326.608 C 255 327.532, 256.176 328, 258.500 328 L 262 328 262 319.960 L 262 311.919 253.750 312.210 C 246.058 312.480, 245.478 312.652, 245.180 314.750 C 244.889 316.802, 245.264 317, 249.430 317 C 254.594 317, 255.547 318.803, 251.777 321.443 C 246.201 325.349, 240 321.191, 240 313.545 C 240 307.635, 242.464 305, 247.992 305 C 250.900 305, 252.322 305.543, 253.232 307 C 254.121 308.424, 255.564 309, 258.241 309 C 262.895 309, 263.135 307.302, 259.117 302.805 C 256.483 299.856, 255.643 299.549, 249.367 299.236 C 244.178 298.978, 241.665 299.335, 239.085 300.697 M 273.085 300.696 C 264.583 305.187, 263.580 319.591, 271.344 325.699 C 276.729 329.935, 287.752 329.339, 292.538 324.553 C 295.601 321.490, 297.432 315.115, 296.569 310.516 C 296.185 308.471, 294.409 305.234, 292.567 303.225 C 289.532 299.912, 288.724 299.581, 282.878 299.251 C 278.126 298.984, 275.629 299.352, 273.085 300.696 M 309.505 299.991 C 308.918 300.941, 300 326.946, 300 327.708 C 300 327.869, 301.585 328, 303.521 328 C 306.307 328, 307.281 327.478, 308.182 325.500 C 309.220 323.223, 309.876 323, 315.552 323 C 321.365 323, 321.825 323.168, 322.411 325.500 C 322.946 327.633, 323.612 328, 326.944 328 L 330.850 328 326.092 313.750 L 321.333 299.500 315.755 299.203 C 312.501 299.029, 309.897 299.358, 309.505 299.991 M 334.667 299.667 C 334.300 300.033, 334 306.558, 334 314.167 L 334 328 343.050 328 C 349.264 328, 353.038 327.515, 355.094 326.451 C 364.915 321.373, 364.158 303.817, 353.965 300.306 C 350.267 299.033, 335.781 298.553, 334.667 299.667 M 179 308 C 179 311.086, 179.036 311.107, 183.750 310.805 C 188.069 310.528, 188.500 310.273, 188.500 308 C 188.500 305.727, 188.069 305.472, 183.750 305.195 C 179.036 304.893, 179 304.914, 179 308 M 276 307 C 273.535 309.465, 273.290 316.541, 275.557 319.777 C 276.757 321.491, 278.103 322, 281.434 322 C 286.231 322, 287.685 320.823, 288.612 316.191 C 289.372 312.390, 288.527 308.670, 286.427 306.570 C 284.194 304.337, 278.425 304.575, 276 307 M 313.235 310.769 L 311.131 317 315.066 317 C 319.540 317, 319.620 316.704, 317.092 309.519 L 315.340 304.537 313.235 310.769 M 342 313.364 L 342 322 346 322 C 351.451 322, 354 319.353, 354 313.691 C 354 307.929, 352.442 306.140, 346.750 305.370 L 342 304.728 342 313.364 M 150.621 310.599 C 148.441 316.997, 148.442 317, 152.939 317 L 156.879 317 155.306 312.250 C 153.062 305.468, 152.443 305.250, 150.621 310.599 M 179 319 C 179 321.925, 179.123 322, 183.893 322 C 187.489 322, 188.951 321.569, 189.410 320.373 C 190.433 317.707, 188.078 316, 183.378 316 C 179.180 316, 179 316.124, 179 319 M 127.605 346.250 C 128.003 346.938, 129.154 348.694, 130.164 350.154 C 131.174 351.614, 132 354.202, 132 355.904 C 132 357.607, 132.450 359, 133 359 C 133.550 359, 134 357.607, 134 355.904 C 134 354.202, 134.826 351.614, 135.836 350.154 C 138.785 345.891, 139.179 345, 138.116 345 C 137.564 345, 136.316 346.350, 135.341 348 C 134.366 349.650, 133.313 351, 133 351 C 132.687 351, 131.634 349.650, 130.659 348 C 129.684 346.350, 128.436 345, 127.884 345 C 127.333 345, 127.207 345.563, 127.605 346.250 M 151 347 C 148.446 349.554, 148.355 355.106, 150.829 357.345 C 155.034 361.151, 162 357.842, 162 352.039 C 162 346.112, 155.065 342.935, 151 347 M 173 350.429 C 173 356.618, 174.632 359, 178.871 359 C 183.006 359, 184.017 357.285, 183.850 350.550 C 183.768 347.223, 183.536 345.850, 183.336 347.500 C 182.376 355.407, 181.864 356.908, 179.917 357.526 C 176.577 358.586, 175 356.294, 175 350.378 C 175 347.420, 174.550 345, 174 345 C 173.450 345, 173 347.443, 173 350.429 M 195 346 C 195 346.550, 195.900 347, 197 347 C 198.778 347, 199 347.667, 199 353 C 199 356.333, 199.444 359, 200 359 C 200.556 359, 201 356.333, 201 353 C 201 347.667, 201.222 347, 203 347 C 204.100 347, 205 346.550, 205 346 C 205 345.450, 202.750 345, 200 345 C 197.250 345, 195 345.450, 195 346 M 216 351.941 C 216 355.980, 216.428 359, 217 359 C 217.550 359, 218 357.650, 218 356 C 218 353.175, 218.229 353, 221.937 353 C 225.629 353, 225.898 353.202, 226.277 356.250 C 226.498 358.038, 226.680 356.125, 226.680 352 C 226.680 347.875, 226.498 345.962, 226.277 347.750 C 225.898 350.798, 225.629 351, 221.937 351 C 218.430 351, 218 350.734, 218 348.559 C 218 347.216, 217.550 345.840, 217 345.500 C 216.369 345.110, 216 347.490, 216 351.941 M 254.174 347.314 C 251.457 350.207, 251.382 354.382, 254 357 C 256.358 359.358, 261.233 359.629, 263 357.500 C 264.464 355.736, 263.662 355.575, 260.867 357.071 C 257.906 358.656, 254 355.828, 254 352.099 C 254 348.138, 256.160 346.635, 260.739 347.409 C 264.243 348.002, 264.367 347.941, 262.559 346.523 C 259.786 344.347, 256.687 344.640, 254.174 347.314 M 276.073 347.635 C 273.450 350.969, 273.438 354.020, 276.039 356.811 C 280.295 361.379, 287.333 358.276, 287.333 351.831 C 287.333 345.565, 279.884 342.789, 276.073 347.635 M 299.195 352 C 299.323 359.348, 299.338 359.389, 299.913 354 L 300.500 348.500 304.463 353.750 C 306.643 356.637, 308.781 359, 309.213 359 C 309.646 359, 310 355.850, 310 352 C 310 348, 309.571 345, 309 345 C 308.450 345, 307.986 347.363, 307.968 350.250 L 307.937 355.500 305.718 352.518 C 304.498 350.878, 302.502 348.403, 301.282 347.018 L 299.063 344.500 299.195 352 M 322.195 352 C 322.323 359.348, 322.338 359.389, 322.913 354 L 323.500 348.500 327.463 353.750 C 329.643 356.637, 331.781 359, 332.213 359 C 332.646 359, 333 355.850, 333 352 C 333 348, 332.571 345, 332 345 C 331.450 345, 330.986 347.363, 330.968 350.250 L 330.937 355.500 328.718 352.518 C 327.498 350.878, 325.502 348.403, 324.282 347.018 L 322.063 344.500 322.195 352 M 344.667 345.667 C 344.300 346.033, 344 349.183, 344 352.667 L 344 359 348.500 359 C 350.975 359, 353 358.550, 353 358 C 353 357.450, 351.425 357, 349.500 357 C 346.667 357, 346 356.619, 346 355 C 346 353.381, 346.667 353, 349.500 353 C 351.425 353, 353 352.550, 353 352 C 353 351.450, 351.425 351, 349.500 351 C 346.667 351, 346 350.619, 346 349 C 346 347.381, 346.667 347, 349.500 347 C 351.425 347, 353 346.550, 353 346 C 353 344.896, 345.729 344.605, 344.667 345.667 M 366.174 347.314 C 363.457 350.207, 363.382 354.382, 366 357 C 368.358 359.358, 373.233 359.629, 375 357.500 C 376.464 355.736, 375.662 355.575, 372.867 357.071 C 369.906 358.656, 366 355.828, 366 352.099 C 366 348.138, 368.160 346.635, 372.739 347.409 C 376.243 348.002, 376.367 347.941, 374.559 346.523 C 371.786 344.347, 368.687 344.640, 366.174 347.314 M 386 346 C 386 346.550, 386.900 347, 388 347 C 389.778 347, 390 347.667, 390 353 C 390 356.333, 390.444 359, 391 359 C 391.556 359, 392 356.333, 392 353 C 392 347.667, 392.222 347, 394 347 C 395.100 347, 396 346.550, 396 346 C 396 345.450, 393.750 345, 391 345 C 388.250 345, 386 345.450, 386 346 M 152.083 347.927 C 150.006 349.242, 150.298 355.014, 152.524 356.642 C 154.947 358.413, 156.500 358.357, 158.429 356.429 C 160.288 354.569, 160.499 349.899, 158.800 348.200 C 157.390 346.790, 154.092 346.656, 152.083 347.927 M 277.200 348.200 C 273.482 351.918, 278.372 359.477, 282.921 357.042 C 285.496 355.664, 286.520 351.841, 285.050 349.093 C 283.795 346.749, 279.177 346.223, 277.200 348.200" stroke="none" fill="#b43e64" fill-rule="evenodd"/><path d="M 0 250.002 L 0 500.004 250.250 499.752 L 500.500 499.500 500.752 249.750 L 501.004 0 250.502 0 L 0 0 0 250.002 M 0.492 250.500 C 0.492 388, 0.608 444.101, 0.750 375.170 C 0.892 306.238, 0.892 193.738, 0.750 125.170 C 0.608 56.601, 0.492 113, 0.492 250.500 M 244.025 131.975 C 238.280 137.720, 242.676 147, 251.142 147 C 252.249 147, 254.469 145.685, 256.077 144.077 C 259.593 140.561, 259.901 136.415, 256.927 132.635 C 255.246 130.497, 254.019 130, 250.427 130 C 247.352 130, 245.397 130.603, 244.025 131.975 M 218.455 145.455 C 215.284 148.625, 215.359 150.333, 219.085 159.724 C 223.173 170.030, 227.820 177.483, 233.687 183.142 C 239.979 189.212, 243.746 191.002, 250.200 190.991 C 257.146 190.978, 264.494 186.832, 270.145 179.737 C 275.345 173.209, 283.126 157.060, 283.753 151.497 C 284.164 147.849, 283.876 147.048, 281.477 145.161 C 275.304 140.305, 271.558 142.983, 267.015 155.500 C 262.826 167.041, 257.721 176.868, 253.408 181.691 L 250.001 185.500 247.034 182.078 C 243.026 177.455, 237.642 167.006, 233.482 155.776 C 231.592 150.674, 229.086 145.713, 227.912 144.750 C 224.928 142.303, 221.339 142.570, 218.455 145.455 M 188.637 175.108 C 186.506 178.151, 186.554 182.265, 188.750 184.791 C 189.713 185.898, 192.975 187.572, 196 188.510 C 204.250 191.069, 221.125 199.531, 225.472 203.290 L 229.305 206.603 225.403 209.825 C 220.457 213.909, 206.810 220.892, 196.705 224.510 C 192.182 226.129, 188.483 228.097, 187.895 229.197 C 186.154 232.450, 187.250 237.117, 190.286 239.373 C 193.029 241.412, 193.152 241.416, 198.286 239.645 C 219.694 232.259, 233.032 220.638, 234.743 207.881 C 236.014 198.402, 225.510 186.211, 209.258 178.305 C 197.539 172.605, 191.091 171.605, 188.637 175.108 M 294.778 176.499 C 275.584 185.051, 265.778 195.100, 265.673 206.326 C 265.551 219.253, 277.797 230.670, 301.232 239.479 C 305.145 240.950, 306.463 241.051, 308.852 240.061 C 311.630 238.911, 314 235.433, 314 232.509 C 314 229.585, 309.248 226.171, 301.500 223.526 C 291.488 220.110, 279.349 213.878, 274.441 209.636 L 270.693 206.396 275.629 202.772 C 281.824 198.224, 294.418 191.943, 303.296 188.973 C 313.282 185.632, 316.220 181.092, 311.927 175.635 C 309.053 171.981, 304.391 172.216, 294.778 176.499 M 175.455 200.455 C 172.361 203.548, 172.195 208.707, 175.073 212.365 C 177.862 215.911, 184.645 216.119, 187.677 212.750 C 190.693 209.399, 191.134 207.256, 189.575 203.525 C 187.080 197.555, 179.913 195.996, 175.455 200.455 M 312.452 200.646 C 309.399 203.940, 309.243 208.768, 312.073 212.365 C 314.886 215.942, 321.607 216.111, 324.826 212.686 C 328.071 209.231, 327.837 202.803, 324.365 200.073 C 320.590 197.103, 315.509 197.348, 312.452 200.646 M 241.272 224.509 C 233.952 228.216, 227.693 235.653, 221.884 247.547 C 215.499 260.620, 214.898 263.988, 218.336 267.427 C 221.583 270.674, 225.926 270.810, 228.666 267.750 C 229.775 266.512, 231.931 261.900, 233.458 257.500 C 237.977 244.477, 247.259 228, 250.075 228 C 252.944 228, 262.344 244.773, 267.445 258.995 C 268.924 263.118, 270.849 267.280, 271.722 268.245 C 273.874 270.623, 279.112 270.476, 281.811 267.961 C 284.758 265.215, 284.584 261.642, 281.083 253.039 C 270.916 228.056, 255.742 217.182, 241.272 224.509 M 246.421 267.396 C 240.549 269.996, 239.634 277.993, 244.747 282.016 C 248.611 285.055, 253.305 284.615, 256.411 280.923 C 259.609 277.123, 259.734 272.933, 256.750 269.593 C 253.904 266.408, 250.356 265.654, 246.421 267.396 M 146.039 302.250 C 145.403 304.038, 143.126 310.563, 140.979 316.750 L 137.077 328 141.019 328 C 144.391 328, 145.053 327.638, 145.589 325.500 C 146.177 323.158, 146.623 323, 152.633 323 C 158.557 323, 159.122 323.192, 160 325.500 C 160.766 327.514, 161.636 328, 164.475 328 C 166.414 328, 168.006 327.663, 168.014 327.250 C 168.021 326.837, 165.884 320.314, 163.264 312.752 L 158.500 299.005 152.848 299.002 C 147.374 299, 147.159 299.103, 146.039 302.250 M 172 313.409 L 172 328 181.453 328 C 192.079 328, 195.362 326.954, 196.978 323.054 C 198.385 319.657, 196.810 315.024, 193.998 314.289 C 192.124 313.799, 192.151 313.669, 194.510 311.813 C 197.710 309.296, 197.903 304.128, 194.898 301.405 C 193.177 299.846, 190.907 299.438, 182.398 299.159 L 172 298.818 172 313.409 M 201.353 300.522 C 200.237 303.431, 201.549 321.419, 203.049 323.762 C 206.631 329.360, 219.126 330.374, 224.769 325.525 C 227.423 323.244, 227.509 322.837, 227.835 311.023 L 228.170 298.869 224.335 299.185 L 220.500 299.500 220.211 309.444 C 220.053 314.913, 219.435 319.976, 218.839 320.694 C 217.128 322.756, 211.250 322.336, 210.035 320.066 C 209.466 319.002, 209 313.827, 209 308.566 L 209 299 205.469 299 C 203.229 299, 201.724 299.557, 201.353 300.522 M 239.085 300.697 C 232.629 304.105, 230.293 312.694, 233.585 320.920 C 236.396 327.946, 244.344 330.755, 251.250 327.165 C 254.187 325.638, 255 325.517, 255 326.608 C 255 327.532, 256.176 328, 258.500 328 L 262 328 262 319.960 L 262 311.919 253.750 312.210 C 246.058 312.480, 245.478 312.652, 245.180 314.750 C 244.889 316.802, 245.264 317, 249.430 317 C 254.594 317, 255.547 318.803, 251.777 321.443 C 246.201 325.349, 240 321.191, 240 313.545 C 240 307.635, 242.464 305, 247.992 305 C 250.900 305, 252.322 305.543, 253.232 307 C 254.121 308.424, 255.564 309, 258.241 309 C 262.895 309, 263.135 307.302, 259.117 302.805 C 256.483 299.856, 255.643 299.549, 249.367 299.236 C 244.178 298.978, 241.665 299.335, 239.085 300.697 M 273.085 300.696 C 264.583 305.187, 263.580 319.591, 271.344 325.699 C 276.729 329.935, 287.752 329.339, 292.538 324.553 C 295.601 321.490, 297.432 315.115, 296.569 310.516 C 296.185 308.471, 294.409 305.234, 292.567 303.225 C 289.532 299.912, 288.724 299.581, 282.878 299.251 C 278.126 298.984, 275.629 299.352, 273.085 300.696 M 309.505 299.991 C 308.918 300.941, 300 326.946, 300 327.708 C 300 327.869, 301.585 328, 303.521 328 C 306.307 328, 307.281 327.478, 308.182 325.500 C 309.220 323.223, 309.876 323, 315.552 323 C 321.365 323, 321.825 323.168, 322.411 325.500 C 322.946 327.633, 323.612 328, 326.944 328 L 330.850 328 326.092 313.750 L 321.333 299.500 315.755 299.203 C 312.501 299.029, 309.897 299.358, 309.505 299.991 M 334.667 299.667 C 334.300 300.033, 334 306.558, 334 314.167 L 334 328 343.050 328 C 349.264 328, 353.038 327.515, 355.094 326.451 C 364.915 321.373, 364.158 303.817, 353.965 300.306 C 350.267 299.033, 335.781 298.553, 334.667 299.667 M 179 308 C 179 311.086, 179.036 311.107, 183.750 310.805 C 188.069 310.528, 188.500 310.273, 188.500 308 C 188.500 305.727, 188.069 305.472, 183.750 305.195 C 179.036 304.893, 179 304.914, 179 308 M 276 307 C 273.535 309.465, 273.290 316.541, 275.557 319.777 C 276.757 321.491, 278.103 322, 281.434 322 C 286.231 322, 287.685 320.823, 288.612 316.191 C 289.372 312.390, 288.527 308.670, 286.427 306.570 C 284.194 304.337, 278.425 304.575, 276 307 M 313.235 310.769 L 311.131 317 315.066 317 C 319.540 317, 319.620 316.704, 317.092 309.519 L 315.340 304.537 313.235 310.769 M 342 313.364 L 342 322 346 322 C 351.451 322, 354 319.353, 354 313.691 C 354 307.929, 352.442 306.140, 346.750 305.370 L 342 304.728 342 313.364 M 150.621 310.599 C 148.441 316.997, 148.442 317, 152.939 317 L 156.879 317 155.306 312.250 C 153.062 305.468, 152.443 305.250, 150.621 310.599 M 179 319 C 179 321.925, 179.123 322, 183.893 322 C 187.489 322, 188.951 321.569, 189.410 320.373 C 190.433 317.707, 188.078 316, 183.378 316 C 179.180 316, 179 316.124, 179 319 M 127.605 346.250 C 128.003 346.938, 129.154 348.694, 130.164 350.154 C 131.174 351.614, 132 354.202, 132 355.904 C 132 357.607, 132.450 359, 133 359 C 133.550 359, 134 357.607, 134 355.904 C 134 354.202, 134.826 351.614, 135.836 350.154 C 138.785 345.891, 139.179 345, 138.116 345 C 137.564 345, 136.316 346.350, 135.341 348 C 134.366 349.650, 133.313 351, 133 351 C 132.687 351, 131.634 349.650, 130.659 348 C 129.684 346.350, 128.436 345, 127.884 345 C 127.333 345, 127.207 345.563, 127.605 346.250 M 151 347 C 148.446 349.554, 148.355 355.106, 150.829 357.345 C 155.034 361.151, 162 357.842, 162 352.039 C 162 346.112, 155.065 342.935, 151 347 M 173 350.429 C 173 356.618, 174.632 359, 178.871 359 C 183.006 359, 184.017 357.285, 183.850 350.550 C 183.768 347.223, 183.536 345.850, 183.336 347.500 C 182.376 355.407, 181.864 356.908, 179.917 357.526 C 176.577 358.586, 175 356.294, 175 350.378 C 175 347.420, 174.550 345, 174 345 C 173.450 345, 173 347.443, 173 350.429 M 195 346 C 195 346.550, 195.900 347, 197 347 C 198.778 347, 199 347.667, 199 353 C 199 356.333, 199.444 359, 200 359 C 200.556 359, 201 356.333, 201 353 C 201 347.667, 201.222 347, 203 347 C 204.100 347, 205 346.550, 205 346 C 205 345.450, 202.750 345, 200 345 C 197.250 345, 195 345.450, 195 346 M 216 351.941 C 216 355.980, 216.428 359, 217 359 C 217.550 359, 218 357.650, 218 356 C 218 353.175, 218.229 353, 221.937 353 C 225.629 353, 225.898 353.202, 226.277 356.250 C 226.498 358.038, 226.680 356.125, 226.680 352 C 226.680 347.875, 226.498 345.962, 226.277 347.750 C 225.898 350.798, 225.629 351, 221.937 351 C 218.430 351, 218 350.734, 218 348.559 C 218 347.216, 217.550 345.840, 217 345.500 C 216.369 345.110, 216 347.490, 216 351.941 M 254.174 347.314 C 251.457 350.207, 251.382 354.382, 254 357 C 256.358 359.358, 261.233 359.629, 263 357.500 C 264.464 355.736, 263.662 355.575, 260.867 357.071 C 257.906 358.656, 254 355.828, 254 352.099 C 254 348.138, 256.160 346.635, 260.739 347.409 C 264.243 348.002, 264.367 347.941, 262.559 346.523 C 259.786 344.347, 256.687 344.640, 254.174 347.314 M 276.073 347.635 C 273.450 350.969, 273.438 354.020, 276.039 356.811 C 280.295 361.379, 287.333 358.276, 287.333 351.831 C 287.333 345.565, 279.884 342.789, 276.073 347.635 M 299.195 352 C 299.323 359.348, 299.338 359.389, 299.913 354 L 300.500 348.500 304.463 353.750 C 306.643 356.637, 308.781 359, 309.213 359 C 309.646 359, 310 355.850, 310 352 C 310 348, 309.571 345, 309 345 C 308.450 345, 307.986 347.363, 307.968 350.250 L 307.937 355.500 305.718 352.518 C 304.498 350.878, 302.502 348.403, 301.282 347.018 L 299.063 344.500 299.195 352 M 322.195 352 C 322.323 359.348, 322.338 359.389, 322.913 354 L 323.500 348.500 327.463 353.750 C 329.643 356.637, 331.781 359, 332.213 359 C 332.646 359, 333 355.850, 333 352 C 333 348, 332.571 345, 332 345 C 331.450 345, 330.986 347.363, 330.968 350.250 L 330.937 355.500 328.718 352.518 C 327.498 350.878, 325.502 348.403, 324.282 347.018 L 322.063 344.500 322.195 352 M 344.667 345.667 C 344.300 346.033, 344 349.183, 344 352.667 L 344 359 348.500 359 C 350.975 359, 353 358.550, 353 358 C 353 357.450, 351.425 357, 349.500 357 C 346.667 357, 346 356.619, 346 355 C 346 353.381, 346.667 353, 349.500 353 C 351.425 353, 353 352.550, 353 352 C 353 351.450, 351.425 351, 349.500 351 C 346.667 351, 346 350.619, 346 349 C 346 347.381, 346.667 347, 349.500 347 C 351.425 347, 353 346.550, 353 346 C 353 344.896, 345.729 344.605, 344.667 345.667 M 366.174 347.314 C 363.457 350.207, 363.382 354.382, 366 357 C 368.358 359.358, 373.233 359.629, 375 357.500 C 376.464 355.736, 375.662 355.575, 372.867 357.071 C 369.906 358.656, 366 355.828, 366 352.099 C 366 348.138, 368.160 346.635, 372.739 347.409 C 376.243 348.002, 376.367 347.941, 374.559 346.523 C 371.786 344.347, 368.687 344.640, 366.174 347.314 M 386 346 C 386 346.550, 386.900 347, 388 347 C 389.778 347, 390 347.667, 390 353 C 390 356.333, 390.444 359, 391 359 C 391.556 359, 392 356.333, 392 353 C 392 347.667, 392.222 347, 394 347 C 395.100 347, 396 346.550, 396 346 C 396 345.450, 393.750 345, 391 345 C 388.250 345, 386 345.450, 386 346 M 152.083 347.927 C 150.006 349.242, 150.298 355.014, 152.524 356.642 C 154.947 358.413, 156.500 358.357, 158.429 356.429 C 160.288 354.569, 160.499 349.899, 158.800 348.200 C 157.390 346.790, 154.092 346.656, 152.083 347.927 M 277.200 348.200 C 273.482 351.918, 278.372 359.477, 282.921 357.042 C 285.496 355.664, 286.520 351.841, 285.050 349.093 C 283.795 346.749, 279.177 346.223, 277.200 348.200" stroke="none" fill="#fbf3e3" fill-rule="evenodd"/></svg>