<svg xmlns="http://www.w3.org/2000/svg" width="500" height="500" viewBox="0 0 500 500" version="1.1"><path d="M 247.216 130.224 C 244.869 130.832, 243.461 132.063, 242.281 134.537 C 240.743 137.762, 240.745 138.242, 242.309 141.523 C 245.167 147.514, 251.470 148.684, 256.077 144.077 C 259.557 140.597, 259.906 136.421, 257.023 132.756 C 254.701 129.805, 251.762 129.046, 247.216 130.224 M 218.455 145.455 C 215.279 148.630, 215.360 150.569, 219.051 159.787 C 223.130 169.974, 227.860 177.522, 233.687 183.142 C 239.979 189.212, 243.746 191.002, 250.200 190.991 C 260.508 190.972, 270.645 182.279, 278.037 167.119 C 284.813 153.224, 285.547 148.362, 281.365 145.073 C 275.311 140.310, 271.531 143.056, 267.015 155.500 C 262.826 167.041, 257.721 176.868, 253.408 181.691 L 250.001 185.500 247.034 182.078 C 243.026 177.455, 237.642 167.006, 233.482 155.776 C 231.592 150.674, 229.086 145.713, 227.912 144.750 C 224.928 142.303, 221.339 142.570, 218.455 145.455 M 188.637 175.108 C 186.505 178.152, 186.554 182.276, 188.750 184.749 C 189.713 185.833, 193.425 187.737, 197 188.979 C 206.886 192.415, 218.938 198.397, 224.425 202.593 L 229.350 206.359 225.580 209.617 C 220.841 213.714, 209.128 219.767, 197.705 224.023 C 192.557 225.941, 188.489 228.086, 187.895 229.196 C 186.154 232.450, 187.250 237.117, 190.286 239.373 C 193.029 241.412, 193.152 241.416, 198.286 239.645 C 220.643 231.931, 235.038 218.764, 234.990 206.072 C 234.956 197.117, 224.307 185.626, 209.258 178.305 C 197.539 172.605, 191.091 171.605, 188.637 175.108 M 294.778 176.499 C 285.529 180.620, 280.299 183.832, 274.908 188.702 C 256.701 205.151, 266.130 225.872, 297.308 237.926 C 304.896 240.859, 306.298 241.119, 308.843 240.065 C 311.629 238.911, 314 235.436, 314 232.509 C 314 229.582, 309.251 226.172, 301.500 223.534 C 291.909 220.270, 279.104 213.656, 274.229 209.448 L 270.693 206.396 275.599 202.795 C 281.838 198.215, 292.325 192.976, 302.291 189.460 C 313.334 185.564, 316.343 181.248, 311.927 175.635 C 309.053 171.981, 304.391 172.216, 294.778 176.499 M 175.455 200.455 C 172.361 203.548, 172.195 208.707, 175.073 212.365 C 177.862 215.911, 184.645 216.119, 187.677 212.750 C 190.693 209.399, 191.134 207.256, 189.575 203.525 C 187.080 197.555, 179.913 195.996, 175.455 200.455 M 312.452 200.646 C 309.399 203.940, 309.243 208.768, 312.073 212.365 C 314.842 215.886, 321.870 216.129, 324.961 212.811 C 328.086 209.457, 327.773 202.753, 324.365 200.073 C 320.590 197.103, 315.509 197.348, 312.452 200.646 M 241.272 224.503 C 238.397 225.963, 233.995 229.436, 231.490 232.222 C 226.532 237.737, 217.259 255.389, 216.372 261 C 215.196 268.449, 223.806 273.177, 228.666 267.750 C 229.775 266.512, 231.931 261.900, 233.458 257.500 C 237.977 244.477, 247.259 228, 250.075 228 C 252.944 228, 262.344 244.773, 267.445 258.995 C 270.719 268.121, 272.291 270, 276.655 270 C 280.895 270, 284 267.011, 284 262.930 C 284 258.506, 278.467 245.866, 272.862 237.486 C 263.593 223.628, 252.212 218.951, 241.272 224.503 M 246.421 267.396 C 240.549 269.996, 239.634 277.993, 244.747 282.016 C 247.562 284.230, 252.666 284.577, 255.087 282.718 C 259.389 279.415, 260.152 273.400, 256.750 269.593 C 253.904 266.408, 250.356 265.654, 246.421 267.396" stroke="none" fill="#ca4265" fill-rule="evenodd"/><path d="M 0 250.002 L 0 500.004 250.250 499.752 L 500.500 499.500 500.752 249.750 L 501.004 0 250.502 0 L 0 0 0 250.002 M 0.492 250.500 C 0.492 388, 0.608 444.101, 0.750 375.170 C 0.892 306.238, 0.892 193.738, 0.750 125.170 C 0.608 56.601, 0.492 113, 0.492 250.500 M 247.216 130.224 C 244.869 130.832, 243.461 132.063, 242.281 134.537 C 240.743 137.762, 240.745 138.242, 242.309 141.523 C 245.167 147.514, 251.470 148.684, 256.077 144.077 C 259.557 140.597, 259.906 136.421, 257.023 132.756 C 254.701 129.805, 251.762 129.046, 247.216 130.224 M 218.455 145.455 C 215.279 148.630, 215.360 150.569, 219.051 159.787 C 223.130 169.974, 227.860 177.522, 233.687 183.142 C 239.979 189.212, 243.746 191.002, 250.200 190.991 C 260.508 190.972, 270.645 182.279, 278.037 167.119 C 284.813 153.224, 285.547 148.362, 281.365 145.073 C 275.311 140.310, 271.531 143.056, 267.015 155.500 C 262.826 167.041, 257.721 176.868, 253.408 181.691 L 250.001 185.500 247.034 182.078 C 243.026 177.455, 237.642 167.006, 233.482 155.776 C 231.592 150.674, 229.086 145.713, 227.912 144.750 C 224.928 142.303, 221.339 142.570, 218.455 145.455 M 188.637 175.108 C 186.505 178.152, 186.554 182.276, 188.750 184.749 C 189.713 185.833, 193.425 187.737, 197 188.979 C 206.886 192.415, 218.938 198.397, 224.425 202.593 L 229.350 206.359 225.580 209.617 C 220.841 213.714, 209.128 219.767, 197.705 224.023 C 192.557 225.941, 188.489 228.086, 187.895 229.196 C 186.154 232.450, 187.250 237.117, 190.286 239.373 C 193.029 241.412, 193.152 241.416, 198.286 239.645 C 220.643 231.931, 235.038 218.764, 234.990 206.072 C 234.956 197.117, 224.307 185.626, 209.258 178.305 C 197.539 172.605, 191.091 171.605, 188.637 175.108 M 294.778 176.499 C 285.529 180.620, 280.299 183.832, 274.908 188.702 C 256.701 205.151, 266.130 225.872, 297.308 237.926 C 304.896 240.859, 306.298 241.119, 308.843 240.065 C 311.629 238.911, 314 235.436, 314 232.509 C 314 229.582, 309.251 226.172, 301.500 223.534 C 291.909 220.270, 279.104 213.656, 274.229 209.448 L 270.693 206.396 275.599 202.795 C 281.838 198.215, 292.325 192.976, 302.291 189.460 C 313.334 185.564, 316.343 181.248, 311.927 175.635 C 309.053 171.981, 304.391 172.216, 294.778 176.499 M 175.455 200.455 C 172.361 203.548, 172.195 208.707, 175.073 212.365 C 177.862 215.911, 184.645 216.119, 187.677 212.750 C 190.693 209.399, 191.134 207.256, 189.575 203.525 C 187.080 197.555, 179.913 195.996, 175.455 200.455 M 312.452 200.646 C 309.399 203.940, 309.243 208.768, 312.073 212.365 C 314.842 215.886, 321.870 216.129, 324.961 212.811 C 328.086 209.457, 327.773 202.753, 324.365 200.073 C 320.590 197.103, 315.509 197.348, 312.452 200.646 M 241.272 224.503 C 238.397 225.963, 233.995 229.436, 231.490 232.222 C 226.532 237.737, 217.259 255.389, 216.372 261 C 215.196 268.449, 223.806 273.177, 228.666 267.750 C 229.775 266.512, 231.931 261.900, 233.458 257.500 C 237.977 244.477, 247.259 228, 250.075 228 C 252.944 228, 262.344 244.773, 267.445 258.995 C 270.719 268.121, 272.291 270, 276.655 270 C 280.895 270, 284 267.011, 284 262.930 C 284 258.506, 278.467 245.866, 272.862 237.486 C 263.593 223.628, 252.212 218.951, 241.272 224.503 M 246.421 267.396 C 240.549 269.996, 239.634 277.993, 244.747 282.016 C 247.562 284.230, 252.666 284.577, 255.087 282.718 C 259.389 279.415, 260.152 273.400, 256.750 269.593 C 253.904 266.408, 250.356 265.654, 246.421 267.396" stroke="none" fill="#fbf3e3" fill-rule="evenodd"/></svg>